<svg width="390" height="220" viewBox="0 0 390 220" fill="none" xmlns="http://www.w3.org/2000/svg">
<path d="M345.433 79.8516C344.332 79.8516 343.305 79.5581 342.351 79.0446L332.595 73.2492C331.127 72.4423 331.861 72.1488 332.301 72.0021C334.282 71.3419 334.649 71.1952 336.703 70.0214C336.923 69.8747 337.216 69.9481 337.436 70.0948L344.919 74.5697C345.212 74.7164 345.579 74.7164 345.799 74.5697L375.07 57.6237C375.363 57.477 375.51 57.1835 375.51 56.8168V22.9981C375.51 22.6313 375.363 22.3379 375.07 22.1912L345.799 5.31855C345.506 5.17183 345.139 5.17183 344.919 5.31855L315.649 22.1912C315.355 22.3379 315.209 22.7047 315.209 22.9981V56.8168C315.209 57.1102 315.355 57.477 315.649 57.6237L323.645 62.2453C327.973 64.4461 330.687 61.8785 330.687 59.311V25.9325C330.687 25.4923 331.054 25.0522 331.568 25.0522H335.309C335.749 25.0522 336.189 25.419 336.189 25.9325V59.311C336.189 65.1063 333.035 68.4809 327.533 68.4809C325.846 68.4809 324.525 68.4809 320.784 66.6469L313.081 62.2453C311.174 61.1449 310 59.0909 310 56.8901V23.0715C310 20.8707 311.174 18.8167 313.081 17.7163L342.351 0.770272C344.185 -0.256757 346.68 -0.256757 348.514 0.770272L377.784 17.7163C379.691 18.8167 380.865 20.8707 380.865 23.0715V56.8901C380.865 59.0909 379.691 61.1449 377.784 62.2453L348.514 79.1913C347.56 79.6315 346.46 79.8516 345.433 79.8516ZM354.456 56.5967C341.618 56.5967 338.977 50.7279 338.977 45.7395C338.977 45.2993 339.344 44.8592 339.857 44.8592H343.672C344.112 44.8592 344.479 45.1526 344.479 45.5928C345.066 49.4808 346.753 51.3882 354.529 51.3882C360.691 51.3882 363.332 49.9943 363.332 46.6932C363.332 44.7858 362.599 43.392 352.989 42.4383C344.992 41.6314 340.004 39.8708 340.004 33.4885C340.004 27.5464 344.992 24.0252 353.355 24.0252C362.745 24.0252 367.367 27.253 367.954 34.2955C367.954 34.5155 367.88 34.7356 367.734 34.9557C367.587 35.1024 367.367 35.2491 367.147 35.2491H363.332C362.965 35.2491 362.599 34.9557 362.525 34.5889C361.645 30.5541 359.371 29.2337 353.355 29.2337C346.606 29.2337 345.799 31.5812 345.799 33.3418C345.799 35.4692 346.753 36.1294 355.85 37.3032C364.873 38.4769 369.128 40.1642 369.128 46.4731C369.054 52.9287 363.772 56.5967 354.456 56.5967Z" fill="#539E43"/>
<path d="M373.998 165.929C373.064 165.608 372.097 165.305 371.101 165.017C371.265 164.35 371.415 163.691 371.548 163.043C373.742 152.407 372.308 143.839 367.411 141.018C362.716 138.313 355.038 141.133 347.283 147.876C346.537 148.524 345.789 149.211 345.042 149.93C344.544 149.454 344.046 148.994 343.55 148.554C335.423 141.345 327.277 138.306 322.385 141.136C317.694 143.849 316.305 151.904 318.279 161.983C318.47 162.957 318.693 163.951 318.945 164.962C317.792 165.289 316.679 165.637 315.614 166.008C306.085 169.327 300 174.529 300 179.924C300 185.497 306.533 191.086 316.457 194.475C317.24 194.742 318.053 194.995 318.891 195.235C318.619 196.329 318.382 197.4 318.184 198.445C316.302 208.35 317.771 216.214 322.45 218.91C327.282 221.694 335.391 218.833 343.288 211.936C343.912 211.391 344.538 210.813 345.166 210.207C345.979 210.99 346.791 211.73 347.599 212.425C355.248 219.001 362.802 221.656 367.476 218.953C372.303 216.161 373.872 207.712 371.836 197.433C371.68 196.648 371.499 195.846 371.296 195.03C371.865 194.862 372.424 194.688 372.969 194.508C383.287 191.092 390 185.571 390 179.924C390 174.509 383.718 169.273 373.998 165.929ZM371.76 190.862C371.268 191.024 370.763 191.182 370.249 191.334C369.11 187.732 367.572 183.901 365.691 179.943C367.486 176.079 368.964 172.298 370.071 168.718C370.992 168.985 371.886 169.265 372.747 169.562C381.075 172.426 386.155 176.661 386.155 179.924C386.155 183.4 380.669 187.913 371.76 190.862ZM368.064 198.179C368.964 202.725 369.093 206.834 368.497 210.047C367.96 212.933 366.883 214.858 365.55 215.629C362.713 217.269 356.648 215.137 350.106 209.513C349.357 208.868 348.601 208.18 347.844 207.451C350.379 204.68 352.914 201.459 355.388 197.882C359.738 197.496 363.849 196.865 367.577 196.004C367.76 196.744 367.923 197.47 368.064 198.179ZM330.683 215.345C327.912 216.323 325.705 216.351 324.371 215.582C321.532 213.947 320.352 207.632 321.961 199.161C322.146 198.191 322.365 197.195 322.618 196.176C326.305 196.991 330.386 197.577 334.747 197.93C337.237 201.431 339.845 204.649 342.473 207.466C341.899 208.02 341.327 208.547 340.758 209.044C337.266 212.093 333.767 214.257 330.683 215.345ZM317.701 190.84C313.312 189.342 309.688 187.394 307.204 185.269C304.972 183.359 303.845 181.463 303.845 179.924C303.845 176.65 308.731 172.474 316.879 169.635C317.868 169.291 318.903 168.966 319.977 168.662C321.103 172.322 322.581 176.148 324.364 180.018C322.558 183.945 321.059 187.832 319.922 191.535C319.156 191.315 318.415 191.084 317.701 190.84ZM322.052 161.245C320.361 152.61 321.484 146.095 324.311 144.46C327.322 142.719 333.98 145.202 340.997 151.427C341.446 151.825 341.896 152.241 342.348 152.672C339.733 155.477 337.149 158.671 334.681 162.151C330.448 162.543 326.396 163.172 322.671 164.016C322.437 163.074 322.23 162.15 322.052 161.245ZM360.874 170.823C359.984 169.286 359.07 167.785 358.138 166.326C361.009 166.689 363.76 167.17 366.344 167.759C365.568 170.243 364.602 172.84 363.464 175.502C362.647 173.953 361.784 172.392 360.874 170.823ZM345.043 155.417C346.816 157.337 348.592 159.48 350.339 161.805C348.579 161.722 346.797 161.679 345 161.679C343.22 161.679 341.451 161.721 339.702 161.802C341.45 159.499 343.242 157.359 345.043 155.417ZM329.11 170.849C328.22 172.39 327.373 173.943 326.569 175.499C325.45 172.846 324.492 170.237 323.71 167.719C326.277 167.144 329.016 166.675 331.869 166.319C330.924 167.792 330.002 169.304 329.11 170.849V170.849ZM331.951 193.803C329.003 193.475 326.224 193.029 323.657 192.471C324.451 189.907 325.43 187.243 326.574 184.533C327.379 186.088 328.23 187.641 329.125 189.186H329.125C330.037 190.759 330.982 192.3 331.951 193.803ZM345.149 204.702C343.327 202.738 341.509 200.565 339.734 198.228C341.458 198.295 343.214 198.33 345 198.33C346.834 198.33 348.648 198.289 350.433 198.209C348.68 200.589 346.911 202.765 345.149 204.702ZM363.5 184.395C364.703 187.134 365.717 189.785 366.522 192.305C363.913 192.899 361.095 193.379 358.127 193.734C359.061 192.255 359.984 190.729 360.89 189.159C361.807 187.571 362.677 185.98 363.5 184.395ZM357.559 187.24C356.153 189.677 354.708 192.004 353.242 194.2C350.571 194.391 347.812 194.489 345 194.489C342.199 194.489 339.475 194.402 336.851 194.232C335.326 192.007 333.85 189.674 332.452 187.261H332.453C331.059 184.855 329.775 182.429 328.613 180.016C329.775 177.598 331.055 175.169 332.441 172.768L332.441 172.768C333.831 170.36 335.293 168.038 336.805 165.827C339.481 165.625 342.226 165.52 345 165.52H345C347.786 165.52 350.535 165.626 353.21 165.83C354.699 168.025 356.151 170.339 357.547 172.747C358.958 175.183 360.254 177.596 361.427 179.962C360.258 182.369 358.964 184.806 357.559 187.24ZM365.491 144.346C368.505 146.082 369.677 153.085 367.783 162.268C367.662 162.854 367.526 163.451 367.378 164.055C363.645 163.195 359.59 162.554 355.345 162.156C352.872 158.638 350.309 155.439 347.737 152.67C348.428 152.005 349.119 151.372 349.807 150.774C356.451 144.997 362.661 142.716 365.491 144.346ZM345 171.895C349.438 171.895 353.037 175.49 353.037 179.924C353.037 184.359 349.438 187.953 345 187.953C340.562 187.953 336.963 184.359 336.963 179.924C336.963 175.49 340.562 171.895 345 171.895Z" fill="#00D8FF"/>
<path d="M154 180V140H236V220H154" fill="#007ACC"/>
<path d="M171.979 180.14V183.4H182.639V213H190.203V183.4H200.863V180.2C200.863 178.4 200.863 176.94 200.781 176.9C200.781 176.84 194.283 176.82 186.39 176.82L172.04 176.88V180.16L171.979 180.14V180.14ZM219.887 176.8C221.978 177.28 223.577 178.2 225.012 179.66C225.771 180.46 226.898 181.86 226.98 182.22C226.98 182.34 223.434 184.68 221.281 185.98C221.199 186.04 220.871 185.7 220.543 185.18C219.477 183.7 218.391 183.06 216.689 182.94C214.229 182.78 212.589 184.04 212.589 186.14C212.589 186.78 212.712 187.14 212.958 187.66C213.512 188.76 214.537 189.42 217.714 190.78C223.577 193.24 226.119 194.86 227.657 197.18C229.399 199.78 229.789 203.86 228.62 206.92C227.308 210.26 224.11 212.52 219.539 213.26C218.104 213.5 214.824 213.46 213.286 213.2C210.006 212.6 206.87 211 204.943 208.94C204.184 208.14 202.729 206 202.811 205.86L203.59 205.38L206.665 203.64L208.981 202.32L209.514 203.02C210.191 204.06 211.708 205.46 212.589 205.94C215.254 207.28 218.821 207.1 220.584 205.54C221.343 204.86 221.671 204.14 221.671 203.14C221.671 202.22 221.527 201.8 221.056 201.1C220.4 200.22 219.088 199.5 215.398 197.9C211.154 196.14 209.35 195.02 207.669 193.3C206.706 192.26 205.824 190.64 205.414 189.3C205.107 188.14 205.004 185.3 205.291 184.16C206.173 180.16 209.268 177.36 213.696 176.56C215.131 176.28 218.514 176.4 219.928 176.76L219.887 176.8V176.8Z" fill="white"/>
<path d="M0 140H80V220H0V140Z" fill="#F7DF1E"/>
<path d="M21.0349 206.854L27.1571 203.149C28.3382 205.243 29.4126 207.015 31.9897 207.015C34.4601 207.015 36.0175 206.048 36.0175 202.29V176.728H43.5355V202.396C43.5355 210.183 38.9712 213.727 32.312 213.727C26.2979 213.727 22.8069 210.612 21.0348 206.853" fill="black"/>
<path d="M47.619 206.048L53.7404 202.504C55.3519 205.136 57.4462 207.069 61.1514 207.069C64.2664 207.069 66.2528 205.511 66.2528 203.363C66.2528 200.786 64.2123 199.873 60.7754 198.369L58.8964 197.563C53.4723 195.255 49.8742 192.355 49.8742 186.233C49.8742 180.594 54.1702 176.298 60.883 176.298C65.6625 176.298 69.0993 177.963 71.5693 182.313L65.7158 186.071C64.4269 183.763 63.0311 182.85 60.8832 182.85C58.6814 182.85 57.2851 184.246 57.2851 186.071C57.2851 188.327 58.6814 189.24 61.9031 190.636L63.7825 191.442C70.173 194.181 73.771 196.973 73.771 203.256C73.771 210.022 68.4547 213.727 61.3126 213.727C54.3316 213.727 49.8206 210.398 47.6192 206.048" fill="black"/>
<path d="M10.3636 72.875L4 1H74L67.6364 72.875L38.9224 81" fill="#E34F26"/>
<path d="M39.7539 75.6719L63.3262 69.1855L68.8633 6.85352H39.7539" fill="#EF652A"/>
<path d="M39.7539 33.9062H27.8887L27.0977 24.7305H39.7539V15.8711H17.2891L19.6621 42.9238H39.7539V33.9062ZM39.5957 57.1621L29.6289 54.4727L28.9961 47.3535H20.1367L21.2441 61.4336L39.5957 66.4961V57.1621Z" fill="#EBEBEB"/>
<path d="M39.5957 33.9062V42.9238H50.6699L49.5625 54.4727L39.5957 57.1621V66.4961L57.9473 61.4336L60.4785 33.9062H39.5957ZM39.5957 15.8711V24.7305H61.2695L62.0605 15.8711H39.5957Z" fill="white"/>
<path d="M166.519 72.875L160 1H230L223.636 72.875L195.078 81" fill="#264DE4"/>
<path d="M194.754 5.41992V69.1406L216.58 63.1348L221.707 5.41992" fill="#2965F1"/>
<path d="M173.953 13.7695H194.754V21.9727H174.686L173.953 13.7695ZM175.418 30.4688H194.754V38.8184H176.15L175.418 30.4688ZM176.59 42.9199H184.793L185.379 49.5117L194.754 52.002V60.6445L177.615 55.957" fill="#EBEBEB"/>
<path d="M194.754 30.4688V38.8184H204.861L203.836 49.5117L194.754 52.002V60.6445L211.6 55.957L215.408 13.7695H194.754V21.9727H206.473L205.667 30.4688H194.754Z" fill="white"/>
</svg>
